<?xml version="1.0" encoding="UTF-8" standalone="no"?>
<!DOCTYPE svg PUBLIC "-//W3C//DTD SVG 1.1//EN" "http://www.w3.org/Graphics/SVG/1.1/DTD/svg11.dtd">
<svg width="100%" height="100%" viewBox="0 0 8268 8268" version="1.1" xmlns="http://www.w3.org/2000/svg" xmlns:xlink="http://www.w3.org/1999/xlink" xml:space="preserve" xmlns:serif="http://www.serif.com/" style="fill-rule:evenodd;clip-rule:evenodd;stroke-linejoin:round;stroke-miterlimit:2;">
    <g id="Page-29" serif:id="Page 29" transform="matrix(4.166667,0,0,4.166667,0,0)">
        <rect x="0" y="0" width="1984.25" height="1984.25" style="fill:none;"/>
        <g id="Exo">
            <g transform="matrix(0,-1.286273,-1.286273,0,820.065806,1358.572374)">
                <path d="M-50.441,-50.441C-78.324,-50.441 -100.928,-27.858 -100.928,0C-100.928,27.858 -78.324,50.441 -50.441,50.441C-22.558,50.441 0.046,27.858 0.046,0C0.046,-27.858 -22.558,-50.441 -50.441,-50.441" style="fill-rule:nonzero;"/>
            </g>
            <g transform="matrix(0,-1.286273,-1.286273,0,1577.06496,935.345083)">
                <path d="M-58.456,-58.423C-90.77,-58.423 -116.932,-32.284 -116.932,0C-116.932,32.285 -90.77,58.456 -58.456,58.456C-26.142,58.456 0.053,32.285 0.053,0C0.053,-32.284 -26.142,-58.423 -58.456,-58.423" style="fill-rule:nonzero;"/>
            </g>
            <g transform="matrix(0,-1.286273,-1.286273,0,1137.986151,879.095834)">
                <path d="M-70.679,-70.679C-109.749,-70.679 -141.422,-39.035 -141.422,-0.001C-141.422,39.034 -109.749,70.679 -70.679,70.679C-31.609,70.679 0.064,39.034 0.064,-0.001C0.064,-39.035 -31.609,-70.679 -70.679,-70.679" style="fill-rule:nonzero;"/>
            </g>
            <g transform="matrix(1.286273,0,0,1.286273,1291.095774,674.188882)">
                <path d="M0,150.821L-1.454,157.701L-84.429,147.48C-95.069,142.982 -106.767,140.502 -119.026,140.502C-168.329,140.502 -208.445,180.621 -208.445,229.969C-208.445,244.886 -204.777,258.976 -198.267,271.346L-312.139,248.987C-310.387,138.715 -303.613,2.017 -301.829,-108.221L-248.561,-120.525L-241.556,80.107L-57.299,112.917L0,150.821Z" style="fill-rule:nonzero;"/>
            </g>
            <g transform="matrix(1.286273,0,0,1.286273,1477.774817,929.576147)">
                <path d="M0,62.941C0,69.655 0.859,76.138 2.478,82.356L-202.893,96.545C-185.545,80.206 -174.74,57.054 -174.74,31.421C-174.74,5.821 -185.545,-17.298 -202.828,-33.604L38.497,-3.87C15.498,9.492 0,34.464 0,62.941" style="fill-rule:nonzero;"/>
            </g>
            <g transform="matrix(1.286273,0,0,1.286273,1564.440959,1555.726698)">
                <path d="M0,24.972L-12.458,70.185L-179.63,26.692L-213.369,15.711L-203.389,-24.078C-200.944,-26.261 -194.599,-31.52 -188.089,-36.944C-179.927,-25.004 -166.214,-17.496 -151.377,-17.496C-133.136,-17.496 -116.977,-28.874 -110.236,-45.213L-105.577,-40.417L-76.96,-20.44L-67.113,-13.527L-48.74,-3.241L-19.463,15.05L0,24.972Z" style="fill-rule:nonzero;"/>
            </g>
            <g transform="matrix(1.286273,0,0,1.286273,1107.689525,1341.691708)">
                <path d="M0,-202.649C-27.889,-157.436 -106.701,-29.701 -156.036,48.951C-162.744,17.762 -190.502,-5.688 -223.612,-5.688C-227.71,-5.688 -231.708,-5.325 -235.575,-4.63L-134.756,-251.6L-44.907,-231.49C-33.408,-217.731 -17.811,-207.511 0,-202.649" style="fill-rule:nonzero;"/>
            </g>
            <g transform="matrix(1.286273,0,0,1.286273,1611.493482,1399.423387)">
                <path d="M0,-229.903L-147.544,41.046C-154.549,25.567 -170.047,15.082 -187.958,15.082C-194.93,15.082 -201.704,16.703 -207.817,19.713L-135.694,-218.718L-97.25,-270.949C-85.222,-243.96 -58.158,-225.107 -26.766,-225.107C-17.348,-225.107 -8.327,-226.794 0,-229.903" style="fill-rule:nonzero;"/>
            </g>
            <g transform="matrix(0,-1.286273,-1.286273,0,472.015921,1697.070649)">
                <path d="M-30.385,-30.385C-47.187,-30.385 -60.814,-16.804 -60.814,-0.017C-60.814,16.769 -47.187,30.385 -30.385,30.385C-13.583,30.385 0.044,16.769 0.044,-0.017C0.044,-16.804 -13.583,-30.385 -30.385,-30.385" style="fill-rule:nonzero;"/>
            </g>
            <g transform="matrix(1.286273,0,0,1.286273,504.425508,1725.389244)">
                <path d="M0,181.912L-34.168,193.984L-113.938,16.538L-73.557,-10.12C-71.839,-10.716 -68.27,-11.377 -64.635,-12.072C-67.84,-5.953 -69.625,0.993 -69.625,8.369C-69.625,32.91 -49.699,52.854 -25.18,52.854C-20.554,52.854 -16.093,52.126 -11.896,50.803L-11.929,51.101L0,181.912Z" style="fill-rule:nonzero;"/>
            </g>
            <g transform="matrix(1.286273,0,0,1.286273,1408.790432,1476.043734)">
                <path d="M0,-0.033C0,1.489 -0.099,2.977 -0.33,4.432L-0.33,4.465C-2.511,19.15 -15.101,30.396 -30.368,30.396C-43.421,30.396 -54.557,22.16 -58.852,10.584C-60.108,7.277 -60.769,3.704 -60.769,-0.033C-60.769,-8.897 -56.969,-16.868 -50.922,-22.392C-45.535,-27.386 -38.299,-30.429 -30.368,-30.429C-14.606,-30.429 -1.652,-18.423 -0.165,-3.043L-0.165,-3.01C-0.066,-2.017 0,-1.058 0,-0.033" style="fill-rule:nonzero;"/>
            </g>
            <g transform="matrix(0,-1.286273,-1.286273,0,472.015921,1697.070649)">
                <path d="M-30.385,-30.385C-47.187,-30.385 -60.814,-16.804 -60.814,-0.017C-60.814,16.769 -47.187,30.385 -30.385,30.385C-13.583,30.385 0.044,16.769 0.044,-0.017C0.044,-16.804 -13.583,-30.385 -30.385,-30.385" style="fill-rule:nonzero;"/>
            </g>
            <g transform="matrix(1.286273,0,0,1.286273,809.39411,1615.160632)">
                <path d="M0,-80.339L-217.929,91.915C-219.052,68.365 -238.516,49.579 -262.275,49.579C-263.993,49.579 -265.711,49.678 -267.363,49.877C-215.847,-14.156 -150.353,-93.834 -104.388,-151.747C-94.639,-156.841 -75.242,-164.713 -56.87,-172.254C-59.447,-164.977 -60.868,-157.172 -60.868,-149.035C-60.868,-113.679 -34.234,-84.407 0,-80.339" style="fill-rule:nonzero;"/>
            </g>
            <g transform="matrix(1.286273,0,0,1.286273,1047.631106,764.89135)">
                <path d="M0,-232.781L-26.006,0L-38.629,-2.25L-40.281,-49.249L-42.198,-198.78L-38.894,-222.792L0,-232.781Z" style="fill-rule:nonzero;"/>
            </g>
            <g transform="matrix(1.286273,0,0,1.286273,970.989407,869.269606)">
                <path d="M0,-285.262L-68.629,-268.682L-153.884,14.041L-157.089,13.115L-80.227,-276.025L-79.236,-279.729L-75.436,-280.656L1.792,-299.303L0,-285.262Z" style="fill-rule:nonzero;"/>
            </g>
            <g transform="matrix(1.286273,0,0,1.286273,1553.390456,674.146178)">
                <path d="M0,-171.559C-32.582,-122.608 -77.82,-54.408 -109.444,-5.854L-136.607,35.688C-142.488,44.949 -154.715,49.711 -165.421,46.768C-170.51,45.544 -174.971,42.369 -178.738,38.929C-202.531,18.687 -226.521,-1.488 -250.709,-21.333C-257.814,18.555 -265.018,58.708 -272.023,96.744L-295.98,92.477C-281.177,23.681 -265.315,-52.424 -251.337,-121.385C-245.951,-148.87 -240.135,-176.289 -236.203,-203.774C-235.211,-212.638 -233.956,-222.66 -233.394,-231.391C-232.535,-243.431 -233.064,-252.824 -240.234,-262.978C-249.718,-278.325 -265.282,-287.784 -280.615,-296.714C-317.856,-319.668 -364.911,-309.514 -395.081,-279.251C-399.641,-274.918 -404.036,-270.387 -408.233,-265.624C-399.575,-268.997 -394.354,-271.048 -394.354,-271.048C-362.664,-303.924 -327.439,-301.709 -327.439,-301.709L-364.581,-268.369C-364.581,-268.369 -495.041,-216.078 -559.973,-191.437C-581.452,-183.4 -598.371,-164.349 -604.154,-142.189C-613.175,-93.635 -636.538,31.52 -645.559,78.487L-659.867,152.078L-663.535,151.449C-649.987,62.015 -634.258,-37.54 -619.586,-126.412C-619.09,-129.455 -617.801,-137.36 -617.306,-140.304C-612.448,-168.781 -591.894,-193.719 -564.996,-204.105C-540.081,-213.961 -462.988,-244.158 -421.484,-260.431C-407.175,-279.251 -391.05,-297.045 -369.538,-308.092C-346.274,-319.767 -318.021,-323.637 -293.039,-314.773C-280.615,-310.639 -269.479,-304.222 -258.343,-297.376C-247.207,-290.562 -236.401,-281.434 -229.098,-270.387C-216.012,-254.213 -218.524,-230.895 -220.176,-211.613C-221.002,-201.095 -222.258,-190.643 -223.745,-180.192L-223.745,-180.159L-156.797,-70.912L-32.615,-197.854L-30.599,-195.968L-153.162,-55.698L-158.945,-49.083L-163.637,-56.757L-226.851,-159.95C-229.131,-145.959 -231.61,-132.035 -233.824,-118.143C-237.855,-94.826 -242.052,-70.747 -246.314,-46.404L-246.314,-46.371C-220.87,-21.267 -195.029,3.572 -169.089,28.147L-166.842,30.296C-161.357,35.952 -151.609,35.258 -146.916,28.576C-101.811,-33.637 -47.122,-110.073 -2.346,-173.18L0,-171.559Z" style="fill-rule:nonzero;"/>
            </g>
            <g transform="matrix(1.286273,0,0,1.286273,1159.386268,62.602419)">
                <path d="M0,113.679C2.456,117.863 4.339,123.381 16.131,129.271C35.064,138.729 56.878,142.194 77.44,147.368L81.849,148.4C86.78,149.7 92.018,148.15 95.234,144.004L106.522,129.242C115.473,117.712 134.684,93.189 143.308,81.852C145.353,79.016 145.732,75.365 145.419,71.967C144.9,59.608 144.293,47.242 143.455,34.94C142.684,26.174 142.468,16.641 140.356,8.328C126.697,-29.269 81.922,-44.667 44.701,-39.015C4.975,-34.077 -12.999,-0.785 -17.507,22.078C-22.885,49.35 -11.946,93.331 0,113.679M43.818,-44.226C84.779,-51.112 133.332,-35.904 149.353,5.448C152.189,15.072 152.487,24.411 153.661,34.087C154.863,46.518 155.827,58.921 156.702,71.337C157.851,78.954 155.108,86.668 150.275,92.365C143.358,101.889 124.74,127.831 117.636,137.737L106.637,152.775C101.097,160.409 90.969,164.791 81.472,163.296C75.833,162.233 70.279,160.707 64.813,159.231C43.526,152.935 22.105,146.699 2.743,135.179C0.533,133.839 -1.756,131.688 -3.617,129.888C-16.686,113.774 -19.899,92.794 -22.976,73.247C-24.545,60.841 -24.772,48.55 -24.641,35.832C-24.16,-11.034 9.092,-38.389 43.818,-44.226" style="fill-rule:nonzero;"/>
            </g>
        </g>
    </g>
</svg>
