<?xml version="1.0" encoding="UTF-8" standalone="no"?>
<!DOCTYPE svg PUBLIC "-//W3C//DTD SVG 1.1//EN" "http://www.w3.org/Graphics/SVG/1.1/DTD/svg11.dtd">
<svg width="100%" height="100%" viewBox="0 0 200 200" version="1.1" xmlns="http://www.w3.org/2000/svg" xmlns:xlink="http://www.w3.org/1999/xlink" xml:space="preserve" xmlns:serif="http://www.serif.com/" style="fill-rule:evenodd;clip-rule:evenodd;stroke-linejoin:round;stroke-miterlimit:2;">
    <path d="M32,28C32,28 36.084,28.188 41,29C45.916,29.812 50,33 50,33C50,33 48.792,62.518 48,72C47.208,81.482 42,115 42,115C42,115 55.616,86.043 62,75C74.375,53.592 85.594,40.516 105,25C123.695,10.052 136.526,7.891 144,8C151.474,8.109 150.341,8.606 156,11C161.659,13.394 164.974,15.692 167,20C169.026,24.308 168.294,38.445 166,47C163.706,55.555 158.801,85.592 157,94C155.199,102.408 153.555,131.375 154,141C154.445,150.625 154.49,165.423 161,172C167.51,178.577 171.549,183.77 175,186C178.451,188.23 180.051,189.589 179,191C177.949,192.411 159.649,186.23 154,180C142.26,167.053 140.395,158.385 139,142C137.605,125.615 137.412,104.395 140,80C142.037,60.803 152.574,21.407 149,18C147.472,16.543 138.642,13.907 121,29C103.358,44.093 69.811,82.521 59,111C48.08,139.764 45,167 45,167C45,167 46.077,168.635 34,166C21.923,163.365 24.579,163.001 22,158C19.279,152.725 25.889,111.305 27,95C28.111,78.695 32,28 32,28Z"/>
</svg>
